<svg width="33" height="32" viewBox="0 0 33 32" fill="none" xmlns="http://www.w3.org/2000/svg">
<path d="M6 8H27.8019C27.9484 8 28.093 8.03217 28.2257 8.09424C28.3584 8.15632 28.4758 8.24677 28.5696 8.35921C28.6635 8.47166 28.7315 8.60334 28.7688 8.74496C28.8062 8.88659 28.812 9.03468 28.7858 9.17879L26.6052 21.1788C26.5634 21.4092 26.4419 21.6176 26.2621 21.7677C26.0823 21.9178 25.8555 22 25.6213 22H9.38982C9.15572 22 8.92904 21.9179 8.74927 21.7679C8.5695 21.618 8.44804 21.4097 8.40604 21.1794L5.24055 3.8206C5.19855 3.5903 5.07709 3.38203 4.89732 3.23208C4.71755 3.08213 4.49087 3 4.25677 3H2" stroke="#CB951F" stroke-width="3" stroke-linecap="round" stroke-linejoin="round"/>
<path d="M10 28.5C10.8284 28.5 11.5 27.8284 11.5 27C11.5 26.1716 10.8284 25.5 10 25.5C9.17157 25.5 8.5 26.1716 8.5 27C8.5 27.8284 9.17157 28.5 10 28.5Z" fill="#CB951F"/>
<path d="M25 28.5C25.8284 28.5 26.5 27.8284 26.5 27C26.5 26.1716 25.8284 25.5 25 25.5C24.1716 25.5 23.5 26.1716 23.5 27C23.5 27.8284 24.1716 28.5 25 28.5Z" fill="#CB951F"/>
</svg>
